<svg width="43" height="43" viewBox="0 0 43 43" fill="none" xmlns="http://www.w3.org/2000/svg">
<g id="&#240;&#159;&#166;&#134; icon &#34;briefcase&#34;">
<g id="Group">
<path id="Vector" d="M29.6888 43H13.3112C3.85319 43 2.0926 38.7 1.64222 34.52L0.106824 18.5C-0.118368 16.4 -0.179784 13.3 1.9493 10.98C3.79178 8.98002 6.8421 8.02002 11.264 8.02002H31.736C36.1784 8.02002 39.2287 9.00002 41.0507 10.98C43.1798 13.3 43.1184 16.4 42.8932 18.52L41.3578 34.5C40.9074 38.7 39.1468 43 29.6888 43ZM11.264 11C7.80428 11 5.42954 11.66 4.22169 12.98C3.21856 14.06 2.89101 15.72 3.15715 18.2L4.69254 34.22C5.04057 37.38 5.92086 40 13.3112 40H29.6888C37.0587 40 37.9594 37.38 38.3075 34.2L39.8429 18.22C40.109 15.72 39.7814 14.06 38.7783 12.98C37.5705 11.66 35.1957 11 31.736 11H11.264Z" fill="#9C50CA"/>
<path id="Vector_2" d="M29.6884 11C28.849 11 28.153 10.32 28.153 9.5V7.9C28.153 4.34 28.153 3 23.1373 3H19.8618C14.8462 3 14.8462 4.34 14.8462 7.9V9.5C14.8462 10.32 14.1501 11 13.3108 11C12.4714 11 11.7754 10.32 11.7754 9.5V7.9C11.7754 4.38 11.7754 0 19.8618 0H23.1373C31.2238 0 31.2238 4.38 31.2238 7.9V9.5C31.2238 10.32 30.5277 11 29.6884 11Z" fill="#9C50CA"/>
<path id="Vector_3" d="M21.4999 31C15.8701 31 15.8701 27.6 15.8701 25.56V23.5C15.8701 20.68 16.5662 20 19.4527 20H23.5471C26.4337 20 27.1297 20.68 27.1297 23.5V25.5C27.1297 27.58 27.1297 31 21.4999 31ZM18.9409 23V23.5V25.56C18.9409 27.62 18.9409 28 21.4999 28C24.0589 28 24.0589 27.68 24.0589 25.54V23.5C24.0589 23.34 24.0589 23.16 24.0589 23C23.8951 23 23.7109 23 23.5471 23H19.4527C19.2889 23 19.1047 23 18.9409 23Z" fill="#9C50CA"/>
<path id="Vector_4" d="M25.5928 27.04C24.8353 27.04 24.1598 26.48 24.0779 25.72C23.9755 24.9 24.5692 24.14 25.4086 24.04C30.8132 23.38 35.9926 21.38 40.3531 18.28C41.0287 17.78 41.9909 17.94 42.5027 18.62C42.994 19.28 42.8507 20.22 42.1546 20.72C37.3642 24.12 31.7139 26.3 25.7771 27.04C25.7156 27.04 25.6542 27.04 25.5928 27.04Z" fill="#9C50CA"/>
<path id="Vector_5" d="M17.4069 27.0598C17.3456 27.0598 17.2842 27.0598 17.2227 27.0598C11.6134 26.4398 6.14741 24.4398 1.41838 21.2798C0.722337 20.8198 0.538089 19.8798 1.00894 19.1998C1.4798 18.5198 2.44198 18.3398 3.13803 18.7998C7.45761 21.6798 12.4323 23.4998 17.5503 24.0798C18.3896 24.1798 19.0038 24.9198 18.9014 25.7398C18.84 26.4998 18.1849 27.0598 17.4069 27.0598Z" fill="#9C50CA"/>
</g>
</g>
</svg>
