<svg width="50" height="51" viewBox="0 0 50 51" fill="none" xmlns="http://www.w3.org/2000/svg">
<g filter="url(#filter0_d_15_1054)">
<path d="M19.2638 20.9347C19.2033 20.9347 19.1629 20.9347 19.1023 20.9347C19.0014 20.9146 18.8601 20.9146 18.739 20.9347C12.8845 20.7531 8.46338 16.1502 8.46338 10.4775C8.46338 4.70376 13.1671 0 18.9408 0C24.7145 0 29.4182 4.70376 29.4182 10.4775C29.398 16.1502 24.9567 20.7531 19.3244 20.9347C19.3042 20.9347 19.284 20.9347 19.2638 20.9347ZM18.9408 3.02817C14.8427 3.02817 11.4915 6.37934 11.4915 10.4775C11.4915 14.515 14.6408 17.7653 18.6582 17.9066C18.7793 17.8864 19.0418 17.8864 19.3042 17.9066C23.2609 17.7249 26.3699 14.4746 26.39 10.4775C26.39 6.37934 23.0389 3.02817 18.9408 3.02817Z" fill="white"/>
<path d="M34.1621 21.1972C34.1015 21.1972 34.041 21.1972 33.9804 21.177C33.1527 21.2577 32.3048 20.6723 32.2241 19.8446C32.1433 19.0169 32.648 18.27 33.4757 18.169C33.718 18.1488 33.9804 18.1488 34.2025 18.1488C37.1499 17.9873 39.4513 15.5648 39.4513 12.5972C39.4513 9.52864 36.9682 7.04554 33.8997 7.04554C33.072 7.06573 32.3856 6.37934 32.3856 5.55164C32.3856 4.72394 33.072 4.03756 33.8997 4.03756C38.6236 4.03756 42.4795 7.89343 42.4795 12.6174C42.4795 17.2606 38.8457 21.0155 34.2227 21.1972C34.2025 21.1972 34.1823 21.1972 34.1621 21.1972Z" fill="white"/>
<path d="M19.2822 43C15.3254 43 11.3484 41.9906 8.34038 39.9718C5.53427 38.1145 4 35.5709 4 32.8051C4 30.0394 5.53427 27.4756 8.34038 25.5981C14.3967 21.5807 24.208 21.5807 30.2239 25.5981C33.0098 27.4554 34.5643 29.999 34.5643 32.7648C34.5643 35.5305 33.03 38.0943 30.2239 39.9718C27.1958 41.9906 23.2389 43 19.2822 43ZM10.016 28.1418C8.07793 29.4338 7.02817 31.0892 7.02817 32.8253C7.02817 34.5413 8.09812 36.1967 10.016 37.4685C15.0427 40.8399 23.5216 40.8399 28.5483 37.4685C30.4864 36.1765 31.5361 34.5211 31.5361 32.785C31.5361 31.069 30.4662 29.4136 28.5483 28.1418C23.5216 24.7906 15.0427 24.7906 10.016 28.1418Z" fill="white"/>
<path d="M37.7956 39.3662C37.089 39.3662 36.4632 38.8817 36.3219 38.1549C36.1604 37.3272 36.6852 36.5399 37.4928 36.3582C38.7646 36.0958 39.9355 35.5911 40.8439 34.8845C41.9946 34.0164 42.6204 32.9263 42.6204 31.7756C42.6204 30.6249 41.9946 29.5347 40.8641 28.6868C39.9758 28.0005 38.8655 27.516 37.5533 27.2131C36.7458 27.0314 36.2209 26.2239 36.4026 25.3962C36.5843 24.5887 37.3918 24.0638 38.2195 24.2455C39.9557 24.6291 41.4697 25.3155 42.7012 26.2643C44.5787 27.6775 45.6486 29.676 45.6486 31.7756C45.6486 33.8751 44.5585 35.8737 42.681 37.307C41.4294 38.276 39.8547 38.9826 38.1186 39.3258C37.9974 39.3662 37.8965 39.3662 37.7956 39.3662Z" fill="white"/>
</g>
<defs>
<filter id="filter0_d_15_1054" x="0" y="0" width="49.6486" height="51" filterUnits="userSpaceOnUse" color-interpolation-filters="sRGB">
<feFlood flood-opacity="0" result="BackgroundImageFix"/>
<feColorMatrix in="SourceAlpha" type="matrix" values="0 0 0 0 0 0 0 0 0 0 0 0 0 0 0 0 0 0 127 0" result="hardAlpha"/>
<feOffset dy="4"/>
<feGaussianBlur stdDeviation="2"/>
<feComposite in2="hardAlpha" operator="out"/>
<feColorMatrix type="matrix" values="0 0 0 0 0 0 0 0 0 0 0 0 0 0 0 0 0 0 0.25 0"/>
<feBlend mode="normal" in2="BackgroundImageFix" result="effect1_dropShadow_15_1054"/>
<feBlend mode="normal" in="SourceGraphic" in2="effect1_dropShadow_15_1054" result="shape"/>
</filter>
</defs>
</svg>
