<svg width="42" height="43" viewBox="0 0 42 43" fill="none" xmlns="http://www.w3.org/2000/svg">
<g id="&#240;&#159;&#166;&#134; icon &#34;profile 2user&#34;">
<g id="Group">
<path id="Vector" d="M15.2638 20.9347C15.2033 20.9347 15.1629 20.9347 15.1023 20.9347C15.0014 20.9146 14.8601 20.9146 14.739 20.9347C8.88451 20.7531 4.46338 16.1502 4.46338 10.4775C4.46338 4.70376 9.16714 0 14.9408 0C20.7145 0 25.4182 4.70376 25.4182 10.4775C25.398 16.1502 20.9567 20.7531 15.3244 20.9347C15.3042 20.9347 15.284 20.9347 15.2638 20.9347ZM14.9408 3.02817C10.8427 3.02817 7.49155 6.37934 7.49155 10.4775C7.49155 14.515 10.6408 17.7653 14.6582 17.9066C14.7793 17.8864 15.0418 17.8864 15.3042 17.9066C19.2609 17.7249 22.3699 14.4746 22.39 10.4775C22.39 6.37934 19.0389 3.02817 14.9408 3.02817Z" fill="#9C50CA"/>
<path id="Vector_2" d="M30.1622 21.1972C30.1016 21.1972 30.041 21.1972 29.9805 21.177C29.1528 21.2577 28.3049 20.6723 28.2241 19.8446C28.1434 19.0169 28.6481 18.27 29.4758 18.169C29.718 18.1488 29.9805 18.1488 30.2025 18.1488C33.15 17.9873 35.4514 15.5648 35.4514 12.5972C35.4514 9.52864 32.9683 7.04554 29.8997 7.04554C29.072 7.06573 28.3856 6.37934 28.3856 5.55164C28.3856 4.72394 29.072 4.03756 29.8997 4.03756C34.6237 4.03756 38.4795 7.89343 38.4795 12.6174C38.4795 17.2606 34.8457 21.0155 30.2227 21.1972C30.2025 21.1972 30.1824 21.1972 30.1622 21.1972Z" fill="#9C50CA"/>
<path id="Vector_3" d="M15.2822 43C11.3254 43 7.34836 41.9906 4.34038 39.9718C1.53427 38.1145 0 35.5709 0 32.8051C0 30.0394 1.53427 27.4756 4.34038 25.5981C10.3967 21.5807 20.208 21.5807 26.2239 25.5981C29.0098 27.4554 30.5643 29.999 30.5643 32.7648C30.5643 35.5305 29.03 38.0943 26.2239 39.9718C23.1958 41.9906 19.2389 43 15.2822 43ZM6.01596 28.1418C4.07793 29.4338 3.02817 31.0892 3.02817 32.8253C3.02817 34.5413 4.09812 36.1967 6.01596 37.4685C11.0427 40.8399 19.5216 40.8399 24.5483 37.4685C26.4864 36.1765 27.5361 34.5211 27.5361 32.785C27.5361 31.069 26.4662 29.4136 24.5483 28.1418C19.5216 24.7906 11.0427 24.7906 6.01596 28.1418Z" fill="#9C50CA"/>
<path id="Vector_4" d="M33.7955 39.3662C33.0889 39.3662 32.4631 38.8817 32.3218 38.1549C32.1603 37.3272 32.6852 36.5399 33.4927 36.3582C34.7645 36.0958 35.9354 35.5911 36.8439 34.8845C37.9946 34.0164 38.6204 32.9263 38.6204 31.7756C38.6204 30.6249 37.9946 29.5347 36.8641 28.6868C35.9758 28.0005 34.8655 27.516 33.5532 27.2131C32.7457 27.0314 32.2209 26.2239 32.4025 25.3962C32.5842 24.5887 33.3917 24.0638 34.2194 24.2455C35.9556 24.6291 37.4697 25.3155 38.7011 26.2643C40.5786 27.6775 41.6486 29.676 41.6486 31.7756C41.6486 33.8751 40.5584 35.8737 38.681 37.307C37.4293 38.276 35.8547 38.9826 34.1185 39.3258C33.9974 39.3662 33.8964 39.3662 33.7955 39.3662Z" fill="#9C50CA"/>
</g>
</g>
</svg>
