<svg width="45" height="47" viewBox="0 0 45 47" fill="none" xmlns="http://www.w3.org/2000/svg">
<g id="&#240;&#159;&#166;&#134; icon &#34;category&#34;">
<g id="Group">
<path id="Vector" d="M8.15 19.2H12.25C16.35 19.2 18.4 17.05 18.4 12.75V8.45C18.4 4.15 16.35 2 12.25 2H8.15C4.05 2 2 4.15 2 8.45V12.75C2 17.05 4.05 19.2 8.15 19.2Z" fill="#FAFCFF" stroke="#9C50CA" stroke-width="3" stroke-miterlimit="10" stroke-linecap="round" stroke-linejoin="round"/>
<path id="Vector_2" d="M32.75 19.2H36.85C40.95 19.2 43 17.05 43 12.75V8.45C43 4.15 40.95 2 36.85 2H32.75C28.65 2 26.6 4.15 26.6 8.45V12.75C26.6 17.05 28.65 19.2 32.75 19.2Z" fill="#FAFCFF" stroke="#9C50CA" stroke-width="3" stroke-miterlimit="10" stroke-linecap="round" stroke-linejoin="round"/>
<path id="Vector_3" d="M32.75 45H36.85C40.95 45 43 42.85 43 38.55V34.25C43 29.95 40.95 27.8 36.85 27.8H32.75C28.65 27.8 26.6 29.95 26.6 34.25V38.55C26.6 42.85 28.65 45 32.75 45Z" fill="#FAFCFF" stroke="#9C50CA" stroke-width="3" stroke-miterlimit="10" stroke-linecap="round" stroke-linejoin="round"/>
<path id="Vector_4" d="M8.15 45H12.25C16.35 45 18.4 42.85 18.4 38.55V34.25C18.4 29.95 16.35 27.8 12.25 27.8H8.15C4.05 27.8 2 29.95 2 34.25V38.55C2 42.85 4.05 45 8.15 45Z" fill="#FAFCFF" stroke="#9C50CA" stroke-width="3" stroke-miterlimit="10" stroke-linecap="round" stroke-linejoin="round"/>
</g>
</g>
</svg>
