<svg width="80" height="80" viewBox="0 0 80 80" fill="none" xmlns="http://www.w3.org/2000/svg">
<path d="M40 79.4544C17.9349 79.4544 0 61.7971 0 40.0733C0 18.3496 17.9349 0.692261 40 0.692261C62.0651 0.692261 80 18.3496 80 40.0733C80 61.7971 62.0651 79.4544 40 79.4544ZM40 6.1873C21.0233 6.1873 5.5814 21.3902 5.5814 40.0733C5.5814 58.7565 21.0233 73.9594 40 73.9594C58.9767 73.9594 74.4186 58.7565 74.4186 40.0733C74.4186 21.3902 58.9767 6.1873 40 6.1873Z" fill="#9C50CA"/>
<path d="M35.3102 55.7533C34.6033 55.7533 33.8963 55.4968 33.3381 54.9473C32.259 53.8849 32.259 52.1265 33.3381 51.0642L44.5009 40.0741L33.3381 29.0839C32.259 28.0215 32.259 26.2631 33.3381 25.2007C34.4172 24.1383 36.2033 24.1383 37.2823 25.2007L50.4172 38.1325C51.4963 39.1949 51.4963 40.9533 50.4172 42.0157L37.2823 54.9473C36.7242 55.4968 36.0172 55.7533 35.3102 55.7533Z" fill="#9C50CA"/>
</svg>
