<svg width="43" height="43" viewBox="0 0 43 43" fill="none" xmlns="http://www.w3.org/2000/svg">
<path d="M28.2379 43H27.9658C18.6707 43 14.1907 39.3364 13.4161 31.13C13.3324 30.2717 13.9604 29.4971 14.8397 29.4134C15.6771 29.3296 16.4726 29.9786 16.5563 30.8369C17.1634 37.4104 20.2618 39.8598 27.9867 39.8598H28.2589C36.7793 39.8598 39.7939 36.8452 39.7939 28.3247V14.6753C39.7939 6.15481 36.7793 3.14021 28.2589 3.14021H27.9867C20.2199 3.14021 17.1216 5.63144 16.5563 12.3306C16.4517 13.1889 15.7189 13.8379 14.8397 13.7541C13.9604 13.6913 13.3324 12.9167 13.3952 12.0584C14.107 3.72638 18.6079 0 27.9658 0H28.2379C38.5169 0 42.9132 4.3963 42.9132 14.6753V28.3247C42.9132 38.6037 38.5169 43 28.2379 43Z" fill="#FAFCFF"/>
<path d="M27.7326 23.0701H3.90891C3.05059 23.0701 2.33881 22.3584 2.33881 21.5C2.33881 20.6417 3.05059 19.9299 3.90891 19.9299H27.7326C28.5909 19.9299 29.3027 20.6417 29.3027 21.5C29.3027 22.3584 28.5909 23.0701 27.7326 23.0701Z" fill="#FAFCFF"/>
<path d="M8.57801 30.0835C8.18025 30.0835 7.78249 29.9369 7.46847 29.6229L0.455331 22.6098C-0.151777 22.0026 -0.151777 20.9978 0.455331 20.3907L7.46847 13.3775C8.07558 12.7704 9.08044 12.7704 9.68755 13.3775C10.2947 13.9846 10.2947 14.9895 9.68755 15.5966L3.78395 21.5002L9.68755 27.4038C10.2947 28.0109 10.2947 29.0158 9.68755 29.6229C9.39447 29.9369 8.97577 30.0835 8.57801 30.0835Z" fill="#FAFCFF"/>
</svg>
