<svg width="45" height="55" viewBox="0 0 45 55" fill="none" xmlns="http://www.w3.org/2000/svg">
<path d="M22.3595 49.202C16.4347 49.202 10.5101 48.2611 4.89053 46.3795C2.7546 45.6421 1.12723 44.1418 0.415252 42.1839C-0.322153 40.226 -0.0678753 38.0646 1.1018 36.1321L4.02599 31.2754C4.63626 30.2583 5.19567 28.2241 5.19567 27.029V19.6804C5.19567 10.2213 12.9003 2.51669 22.3595 2.51669C31.8186 2.51669 39.5232 10.2213 39.5232 19.6804V27.029C39.5232 28.1987 40.0826 30.2583 40.6929 31.3008L43.5916 36.1321C44.685 37.9629 44.8884 40.1751 44.151 42.1839C43.4136 44.1927 41.8117 45.7184 39.8029 46.3795C34.2088 48.2611 28.2841 49.202 22.3595 49.202ZM22.3595 6.33085C15.0108 6.33085 9.00983 12.3064 9.00983 19.6804V27.029C9.00983 28.8852 8.247 31.6314 7.30617 33.2334L4.38198 38.0901C3.82257 39.0309 3.67 40.0226 4.00056 40.8617C4.3057 41.7262 5.06853 42.3873 6.11107 42.7433C16.7399 46.3032 28.0044 46.3032 38.6332 42.7433C39.5486 42.4382 40.2606 41.7516 40.5912 40.8362C40.9217 39.9208 40.8454 38.9292 40.3369 38.0901L37.4127 33.2334C36.4464 31.5805 35.709 28.8598 35.709 27.0036V19.6804C35.709 12.3064 29.7335 6.33085 22.3595 6.33085Z" fill="#292D32"/>
<path d="M27.0883 7.01806C26.9103 7.01806 26.7323 6.99263 26.5543 6.94177C25.8169 6.73835 25.1049 6.58578 24.4184 6.48407C22.257 6.20437 20.1719 6.35693 18.214 6.94177C17.502 7.17062 16.7393 6.94177 16.2561 6.40779C15.773 5.87381 15.6204 5.11098 15.9001 4.42443C16.9427 1.75451 19.4854 0 22.3841 0C25.2829 0 27.8257 1.72909 28.8682 4.42443C29.1225 5.11098 28.9953 5.87381 28.5122 6.40779C28.1308 6.81463 27.5968 7.01806 27.0883 7.01806Z" fill="#292D32"/>
<path d="M22.3584 55C19.8411 55 17.4 53.9829 15.6202 52.2029C13.8402 50.423 12.8231 47.9819 12.8231 45.4646H16.6373C16.6373 46.9648 17.2475 48.4396 18.3154 49.5076C19.3834 50.5756 20.8582 51.1858 22.3584 51.1858C25.5115 51.1858 28.0797 48.6176 28.0797 45.4646H31.8938C31.8938 50.7281 27.622 55 22.3584 55Z" fill="#292D32"/>
</svg>
