<svg width="55" height="55" viewBox="0 0 55 55" fill="none" xmlns="http://www.w3.org/2000/svg">
<path d="M27.8081 31.4138C27.757 31.4138 27.6802 31.4138 27.6291 31.4138C27.5523 31.4138 27.45 31.4138 27.3732 31.4138C21.5662 31.2347 17.2174 26.7069 17.2174 21.1301C17.2174 15.451 21.8476 10.8208 27.5267 10.8208C33.2058 10.8208 37.836 15.451 37.836 21.1301C37.8104 26.7324 33.436 31.2347 27.8849 31.4138C27.8337 31.4138 27.8337 31.4138 27.8081 31.4138ZM27.5012 14.6324C23.9198 14.6324 21.029 17.5487 21.029 21.1045C21.029 24.6092 23.7663 27.4487 27.2453 27.5766C27.3221 27.551 27.5779 27.551 27.8337 27.5766C31.2616 27.3975 33.9476 24.5836 33.9732 21.1045C33.9732 17.5487 31.0825 14.6324 27.5012 14.6324Z" fill="#292D32"/>
<path d="M27.5019 55C20.6206 55 14.0462 52.4419 8.95555 47.7861C8.49509 47.3768 8.29044 46.7628 8.3416 46.1745C8.67415 43.1303 10.5672 40.2908 13.7137 38.1931C21.3369 33.128 33.6926 33.128 41.2903 38.1931C44.4368 40.3164 46.3298 43.1303 46.6623 46.1745C46.7391 46.7884 46.5088 47.3768 46.0484 47.7861C40.9577 52.4419 34.3833 55 27.5019 55ZM12.3579 45.6628C16.6044 49.2186 21.9508 51.1628 27.5019 51.1628C33.0531 51.1628 38.3996 49.2186 42.6461 45.6628C42.1856 44.1024 40.9577 42.5931 39.1414 41.3652C32.8484 37.1699 22.1811 37.1699 15.8369 41.3652C14.0206 42.5931 12.8183 44.1024 12.3579 45.6628Z" fill="#292D32"/>
<path d="M27.4999 54.9997C12.3302 54.9997 0 42.6696 0 27.4999C0 12.3302 12.3302 0 27.4999 0C42.6696 0 54.9997 12.3302 54.9997 27.4999C54.9997 42.6696 42.6696 54.9997 27.4999 54.9997ZM27.4999 3.83719C14.4534 3.83719 3.83719 14.4534 3.83719 27.4999C3.83719 40.5463 14.4534 51.1626 27.4999 51.1626C40.5463 51.1626 51.1626 40.5463 51.1626 27.4999C51.1626 14.4534 40.5463 3.83719 27.4999 3.83719Z" fill="#292D32"/>
</svg>
