<svg width="44" height="43" viewBox="0 0 44 43" fill="none" xmlns="http://www.w3.org/2000/svg">
<path d="M23.4993 42.9988H15.4996C4.63987 42.9988 0 38.3589 0 27.4992V15.4996C0 4.63987 4.63987 0 15.4996 0H27.4992C38.3589 0 42.9988 4.63987 42.9988 15.4996V23.4993C42.9988 24.3193 42.3188 24.9993 41.4988 24.9993C40.6788 24.9993 39.9989 24.3193 39.9989 23.4993V15.4996C39.9989 6.27982 36.719 2.99991 27.4992 2.99991H15.4996C6.27982 2.99991 2.99991 6.27982 2.99991 15.4996V27.4992C2.99991 36.719 6.27982 39.9989 15.4996 39.9989H23.4993C24.3193 39.9989 24.9993 40.6788 24.9993 41.4988C24.9993 42.3188 24.3193 42.9988 23.4993 42.9988Z" fill="#9C50CA"/>
<path d="M12.1598 27.9792C11.8399 27.9792 11.5199 27.8792 11.2399 27.6592C10.5799 27.1592 10.46 26.2193 10.9599 25.5593L15.7197 19.3794C16.2997 18.6395 17.1197 18.1595 18.0597 18.0395C18.9997 17.9195 19.9196 18.1795 20.6596 18.7595L24.3195 21.6394C24.4595 21.7594 24.5995 21.7394 24.6995 21.7394C24.7795 21.7394 24.9195 21.6994 25.0395 21.5394L29.6594 15.5796C30.1594 14.9196 31.0993 14.7996 31.7593 15.3196C32.4193 15.8196 32.5393 16.7595 32.0193 17.4195L27.3994 23.3793C26.8194 24.1193 25.9995 24.5993 25.0595 24.6993C24.1395 24.8193 23.1996 24.5593 22.4796 23.9793L18.8197 21.0994C18.6797 20.9794 18.5197 20.9794 18.4397 20.9994C18.3597 20.9994 18.2197 21.0394 18.0997 21.1994L13.3399 27.3792C13.0599 27.7792 12.6198 27.9792 12.1598 27.9792Z" fill="#9C50CA"/>
<path d="M38.02 42.9991C37.32 42.9991 36.4198 42.7791 35.3599 42.1392L34.8599 41.8392C34.7199 41.7592 34.2999 41.7592 34.1599 41.8392L33.6599 42.1392C31.36 43.5191 29.9002 42.9391 29.2602 42.4591C28.6003 41.9792 27.5801 40.7792 28.1801 38.1393L28.2803 37.7193C28.3203 37.5593 28.2001 37.1793 28.1001 37.0593L27.4003 36.3593C26.2203 35.1594 25.7601 33.7594 26.1601 32.4994C26.5601 31.2595 27.7403 30.3795 29.4002 30.0995L30.16 29.9795C30.3 29.9395 30.58 29.7395 30.66 29.5995L31.22 28.4595C32 26.8796 33.2001 25.9796 34.5201 25.9796C35.84 25.9796 37.04 26.8796 37.82 28.4595L38.38 29.5795C38.46 29.7195 38.74 29.9195 38.88 29.9595L39.6399 30.0795C41.2999 30.3595 42.4799 31.2395 42.8798 32.4794C43.2798 33.7194 42.8398 35.1194 41.6399 36.3393L40.9399 37.0393C40.8399 37.1593 40.7199 37.5393 40.7599 37.6993L40.8597 38.1193C41.4597 40.7592 40.4399 41.9592 39.7799 42.4391C39.4199 42.7191 38.84 42.9991 38.02 42.9991ZM34.4799 28.9995C34.4599 29.0195 34.1801 29.2195 33.9001 29.7995L33.3401 30.9395C32.8601 31.9194 31.72 32.7594 30.66 32.9394L29.9002 33.0594C29.2602 33.1594 29.0402 33.3794 29.0202 33.4194C29.0202 33.4594 29.08 33.7794 29.54 34.2394L30.24 34.9394C31.06 35.7793 31.48 37.2193 31.22 38.3593L31.12 38.7792C30.94 39.5592 31.02 39.8992 31.06 40.0192C31.12 39.9792 31.46 39.9392 32.12 39.5392L32.6199 39.2392C33.7199 38.5793 35.3001 38.5793 36.4 39.2392L36.9 39.5392C37.72 40.0392 38.06 39.9792 38.08 39.9792C38 39.9792 38.0998 39.5792 37.9198 38.7792L37.82 38.3593C37.56 37.1993 37.9798 35.7793 38.7998 34.9394L39.4997 34.2394C39.9597 33.7794 40.0199 33.4594 40.0199 33.3994C39.9999 33.3594 39.7799 33.1594 39.14 33.0394L38.38 32.9194C37.3 32.7394 36.18 31.8994 35.7001 30.9195L35.1401 29.7995C34.8201 29.1995 34.5399 29.0195 34.4799 28.9995Z" fill="#9C50CA"/>
</svg>
