<svg width="40" height="40" viewBox="0 0 40 40" fill="none" xmlns="http://www.w3.org/2000/svg">
<path d="M25.285 39.3819H14.2516C4.26627 39.3819 0 35.1816 0 25.3508V14.4881C0 4.65729 4.26627 0.457031 14.2516 0.457031H17.9294C18.6833 0.457031 19.3086 1.07259 19.3086 1.81487C19.3086 2.55716 18.6833 3.17272 17.9294 3.17272H14.2516C5.77418 3.17272 2.75837 6.14187 2.75837 14.4881V25.3508C2.75837 33.697 5.77418 36.6662 14.2516 36.6662H25.285C33.7624 36.6662 36.7782 33.697 36.7782 25.3508V21.7299C36.7782 20.9876 37.4034 20.3721 38.1574 20.3721C38.9114 20.3721 39.5366 20.9876 39.5366 21.7299V25.3508C39.5366 35.1816 35.2703 39.3819 25.285 39.3819Z" fill="#9C50CA"/>
<path d="M13.3309 30.2211C12.2092 30.2211 11.1794 29.8228 10.4255 29.0987C9.52439 28.2115 9.13821 26.9261 9.34049 25.5683L10.1312 20.1188C10.2783 19.0687 10.9771 17.7109 11.7311 16.9686L26.2216 2.70211C29.881 -0.900703 33.5956 -0.900703 37.2551 2.70211C39.2595 4.67551 40.1605 6.68512 39.9767 8.69472C39.8112 10.3241 38.9285 11.9173 37.2551 13.5468L22.7645 27.8132C22.0105 28.5555 20.6313 29.2435 19.5647 29.3883L14.0297 30.1668C13.7907 30.2211 13.5516 30.2211 13.3309 30.2211ZM28.1708 4.62119L13.6803 18.8877C13.3309 19.2317 12.9264 20.0283 12.8528 20.499L12.0621 25.9485C11.9885 26.4735 12.0989 26.908 12.3747 27.1796C12.6505 27.4511 13.0919 27.5598 13.6252 27.4873L19.1602 26.7089C19.6383 26.6364 20.4658 26.2381 20.7968 25.8941L35.2874 11.6277C36.4827 10.4509 37.108 9.4008 37.1999 8.42316C37.3102 7.24636 36.685 5.99714 35.2874 4.60309C32.3452 1.70636 30.3224 2.52106 28.1708 4.62119Z" fill="#9C50CA"/>
<path d="M34.2031 15.9904C34.0744 15.9904 33.9457 15.9723 33.8353 15.9361C28.999 14.5964 25.1557 10.8125 23.7949 6.051C23.5926 5.32682 24.0155 4.58453 24.7511 4.36728C25.4867 4.16813 26.2406 4.58453 26.4429 5.30872C27.5463 9.16499 30.654 12.2247 34.5709 13.3109C35.3065 13.5101 35.7294 14.2705 35.5271 14.9947C35.3616 15.6102 34.81 15.9904 34.2031 15.9904Z" fill="#9C50CA"/>
</svg>
