<svg width="40" height="40" viewBox="0 0 40 40" fill="none" xmlns="http://www.w3.org/2000/svg">
<path d="M25.285 40.0008H14.2516C4.26627 40.0008 0 35.7345 0 25.7493V14.7158C0 4.73051 4.26627 0.464233 14.2516 0.464233H17.9294C18.6833 0.464233 19.3086 1.08946 19.3086 1.84342C19.3086 2.59737 18.6833 3.2226 17.9294 3.2226H14.2516C5.77418 3.2226 2.75837 6.23841 2.75837 14.7158V25.7493C2.75837 34.2266 5.77418 37.2425 14.2516 37.2425H25.285C33.7624 37.2425 36.7782 34.2266 36.7782 25.7493V22.0714C36.7782 21.3175 37.4034 20.6923 38.1574 20.6923C38.9114 20.6923 39.5366 21.3175 39.5366 22.0714V25.7493C39.5366 35.7345 35.2703 40.0008 25.285 40.0008Z" fill="white"/>
<path d="M13.3309 30.6961C12.2092 30.6961 11.1794 30.2915 10.4254 29.556C9.52435 28.6549 9.13818 27.3493 9.34046 25.9701L10.1312 20.435C10.2783 19.3684 10.9771 17.9892 11.731 17.2353L26.2216 2.74458C29.881 -0.914858 33.5956 -0.914858 37.255 2.74458C39.2594 4.74899 40.1605 6.79018 39.9766 8.83137C39.8111 10.4864 38.9284 12.1046 37.255 13.7597L22.7644 28.2503C22.0105 29.0043 20.6313 29.7031 19.5647 29.8502L14.0297 30.6409C13.7906 30.6961 13.5516 30.6961 13.3309 30.6961ZM28.1708 4.69382L13.6803 19.1845C13.3309 19.5339 12.9263 20.343 12.8528 20.8211L12.062 26.3563C11.9885 26.8895 12.0988 27.3309 12.3747 27.6067C12.6505 27.8826 13.0918 27.9929 13.6251 27.9193L19.1601 27.1286C19.6383 27.055 20.4658 26.6505 20.7968 26.3011L35.2874 11.8104C36.4827 10.6151 37.1079 9.54855 37.1999 8.55553C37.3102 7.36024 36.685 6.09139 35.2874 4.67543C32.3451 1.73317 30.3223 2.56068 28.1708 4.69382Z" fill="white"/>
<path d="M34.2031 16.2417C34.0743 16.2417 33.9456 16.2233 33.8353 16.1865C28.9989 14.8257 25.1556 10.9824 23.7948 6.14606C23.5926 5.41049 24.0155 4.65654 24.7511 4.43587C25.4866 4.23359 26.2406 4.65654 26.4429 5.3921C27.5462 9.30898 30.654 12.4167 34.5709 13.5201C35.3064 13.7224 35.7294 14.4947 35.5271 15.2303C35.3616 15.8555 34.8099 16.2417 34.2031 16.2417Z" fill="white"/>
</svg>
