<svg width="34" height="35" viewBox="0 0 34 35" fill="none" xmlns="http://www.w3.org/2000/svg">
<path d="M15.8914 33.3722C7.13177 33.3722 0 25.8838 0 16.6861C0 7.48841 7.13177 0 15.8914 0C24.6511 0 31.7829 7.48841 31.7829 16.6861C31.7829 25.8838 24.6511 33.3722 15.8914 33.3722ZM15.8914 2.44187C8.40308 2.44187 2.32558 8.83958 2.32558 16.6861C2.32558 24.5327 8.40308 30.9304 15.8914 30.9304C23.3798 30.9304 29.4573 24.5327 29.4573 16.6861C29.4573 8.83958 23.3798 2.44187 15.8914 2.44187Z" fill="white"/>
<path d="M32.1711 35C31.8765 35 31.5819 34.886 31.3494 34.6419L28.2486 31.386C27.799 30.9139 27.799 30.1325 28.2486 29.6604C28.6982 29.1883 29.4424 29.1883 29.892 29.6604L32.9928 32.9163C33.4424 33.3884 33.4424 34.1698 32.9928 34.6419C32.7602 34.886 32.4657 35 32.1711 35Z" fill="white"/>
</svg>
