<svg width="47" height="47" viewBox="0 0 47 47" fill="none" xmlns="http://www.w3.org/2000/svg">
<g id="&#240;&#159;&#166;&#134; icon &#34;wallet&#34;">
<g id="Group">
<path id="Vector" d="M45 23.5V34.25C45 40.7 40.7 45 34.25 45H12.75C6.3 45 2 40.7 2 34.25V23.5C2 17.652 5.526 13.567 11.0085 12.879C11.5675 12.793 12.148 12.75 12.75 12.75H34.25C34.809 12.75 35.3465 12.7715 35.8625 12.8575C41.4095 13.5025 45 17.609 45 23.5Z" fill="white" stroke="#9C50CA" stroke-width="3" stroke-linecap="round" stroke-linejoin="round"/>
<path id="Vector_2" d="M35.8657 12.8575C35.3497 12.7715 34.8122 12.75 34.2532 12.75H12.7532C12.1512 12.75 11.5707 12.793 11.0117 12.879C11.3127 12.277 11.7427 11.718 12.2587 11.202L19.2462 4.193C22.1917 1.269 26.9647 1.269 29.9102 4.193L33.6727 7.99854C35.0487 9.35304 35.7797 11.073 35.8657 12.8575Z" fill="white" stroke="#9C50CA" stroke-width="3" stroke-linecap="round" stroke-linejoin="round"/>
<g id="Vector_3">
<path d="M45 24.575H38.55C36.185 24.575 34.25 26.51 34.25 28.875C34.25 31.24 36.185 33.175 38.55 33.175H45" fill="white"/>
<path d="M45 24.575H38.55C36.185 24.575 34.25 26.51 34.25 28.875C34.25 31.24 36.185 33.175 38.55 33.175H45" stroke="#9C50CA" stroke-width="3" stroke-linecap="round" stroke-linejoin="round"/>
</g>
</g>
</g>
</svg>
